<?xml version="1.0" standalone="no"?>
<!DOCTYPE svg PUBLIC "-//W3C//DTD SVG 20010904//EN"
 "http://www.w3.org/TR/2001/REC-SVG-20010904/DTD/svg10.dtd">
<svg version="1.0" xmlns="http://www.w3.org/2000/svg"
 width="0.000000pt" height="37.000000pt" viewBox="0 0 667.000000 300.000000"
 preserveAspectRatio="xMidYMid meet">

<g transform="translate(0.000000,300.000000) scale(0.100000,-0.100000)"
fill="#62D0DF" stroke="none">
<path d="M3362 2819 c-21 -8 -22 -11 -8 -24 19 -19 26 -19 26 0 0 9 10 20 23
25 20 8 20 9 2 9 -11 0 -30 -4 -43 -10z"/>
<path d="M3465 2810 c3 -5 1 -10 -4 -10 -6 0 -11 -5 -11 -11 0 -8 5 -8 15 1
17 14 20 30 4 30 -5 0 -7 -4 -4 -10z"/>
<path d="M3404 2778 c-17 -19 -17 -21 -1 -15 9 4 17 2 17 -4 0 -6 4 -8 9 -5 9
6 9 31 0 41 -3 3 -14 -5 -25 -17z"/>
<path d="M3511 2776 c18 -19 27 -22 37 -13 9 7 16 7 20 0 13 -19 37 -20 70 -2
34 20 38 18 22 -12 -9 -16 -7 -19 15 -19 35 0 40 3 37 17 -3 15 14 17 23 3 3
-5 16 -10 28 -10 12 0 17 4 12 8 -14 12 -134 46 -141 40 -3 -3 -21 -2 -42 3
-24 5 -41 4 -51 -4 -11 -9 -15 -9 -18 1 -3 6 -12 12 -20 12 -11 0 -9 -6 8 -24z"/>
<path d="M3316 2753 c-11 -11 -6 -22 15 -33 29 -16 35 -6 11 18 -11 11 -23 18
-26 15z"/>
<path d="M3800 2743 c0 -15 79 -53 121 -58 24 -4 79 -13 121 -22 74 -15 128
-12 128 7 0 12 -83 24 -125 17 -21 -3 -40 0 -52 8 -22 17 -53 19 -53 4 0 -8
-5 -8 -15 1 -8 7 -13 16 -10 20 3 4 -4 10 -15 13 -22 6 -28 -8 -7 -16 6 -3 -1
-6 -16 -6 -16 -1 -26 3 -22 9 3 6 -6 15 -20 20 -32 12 -35 12 -35 3z"/>
<path d="M3453 2717 c4 -10 7 -23 7 -28 0 -5 5 -9 10 -9 16 0 12 26 -7 41 -15
12 -16 12 -10 -4z"/>
<path d="M3302 2668 c5 -15 37 -18 41 -3 1 6 -9 12 -22 13 -16 3 -22 -1 -19
-10z"/>
<path d="M4200 2650 c20 -13 33 -13 25 0 -3 6 -14 10 -23 10 -15 0 -15 -2 -2
-10z"/>
<path d="M4240 2645 c0 -9 55 -32 68 -28 7 3 20 1 30 -3 9 -4 22 -9 27 -10 6
-1 15 -3 20 -4 6 -1 22 -1 37 0 16 1 35 -6 44 -15 9 -9 28 -15 43 -15 14 1 31
1 36 0 6 -2 15 -4 20 -5 6 -1 17 -5 25 -8 8 -4 90 -23 182 -42 93 -19 229 -51
303 -70 74 -19 149 -36 167 -38 18 -2 40 -6 48 -9 46 -18 105 -26 117 -16 10
8 13 7 13 -4 0 -10 20 -18 63 -26 34 -6 123 -23 197 -38 74 -15 144 -27 155
-28 11 0 22 -4 25 -7 8 -9 113 -28 145 -26 31 2 70 -26 60 -43 -3 -4 -2 -10 2
-13 5 -2 3 -2 -4 -1 -7 2 -15 -1 -18 -6 -4 -6 -1 -10 5 -10 6 0 8 -5 4 -11 -5
-8 -9 -8 -14 1 -6 10 -17 8 -44 -9 -20 -13 -34 -27 -31 -32 4 -5 0 -6 -8 -3
-8 3 -33 -5 -56 -17 -35 -18 -40 -24 -29 -36 11 -14 9 -15 -17 -9 -35 8 -77
-16 -60 -33 7 -6 33 2 79 24 71 34 126 54 160 59 11 2 22 8 24 14 2 7 9 12 15
12 7 0 18 9 25 20 7 12 17 18 23 15 5 -4 16 -1 24 5 19 15 72 -6 78 -32 7 -24
-5 -23 -21 2 -13 21 -51 28 -53 10 -1 -5 -2 -13 -3 -17 -1 -5 -6 -28 -10 -53
-5 -25 -13 -51 -18 -57 -6 -7 -7 -13 -3 -13 4 0 2 -6 -4 -14 -9 -11 -6 -15 14
-18 14 -3 28 -1 31 3 3 5 0 9 -5 9 -6 0 -11 5 -11 10 0 16 20 12 27 -6 3 -9 1
-19 -6 -23 -6 -4 -9 -15 -5 -24 3 -9 2 -17 -4 -17 -6 0 -12 5 -14 12 -3 7 -12
9 -22 5 -14 -6 -16 -10 -7 -21 9 -10 8 -15 -2 -19 -8 -3 -17 -23 -20 -44 -4
-21 -9 -55 -12 -75 -5 -32 -3 -38 11 -38 15 0 15 -2 3 -17 -23 -27 -37 -63
-48 -121 -15 -71 -14 -92 4 -92 20 0 8 -27 -14 -33 -12 -3 -20 -18 -25 -45 -3
-22 -13 -48 -23 -57 -11 -12 -13 -19 -5 -24 11 -7 11 -68 0 -87 -6 -11 -26
-97 -32 -140 -2 -18 -9 -47 -15 -65 -6 -19 -20 -83 -31 -144 -34 -194 -78
-397 -88 -407 -9 -9 -65 30 -90 65 -7 9 -18 15 -23 12 -5 -4 -9 -1 -9 5 0 6
-11 23 -25 38 -13 15 -50 56 -81 92 -31 36 -61 64 -66 62 -5 -1 -7 1 -4 6 9
14 -158 210 -320 373 -168 171 -163 161 -140 264 36 163 59 226 90 248 17 12
33 22 36 22 5 1 67 29 175 80 39 18 110 52 159 75 50 22 117 57 150 78 34 20
67 37 74 38 23 4 44 26 34 36 -11 11 -60 -11 -62 -27 -1 -5 -8 -9 -15 -7 -8 1
-94 -36 -191 -83 -97 -47 -178 -85 -181 -85 -3 0 -35 -14 -71 -31 -97 -45
-112 -50 -112 -38 0 6 9 46 20 88 31 123 90 416 90 450 0 48 -60 70 -93 34 -8
-10 -50 -110 -92 -223 -104 -282 -116 -310 -127 -310 -6 0 -28 16 -50 36 -32
28 -45 34 -66 30 -65 -15 -131 -135 -148 -267 -3 -31 -13 -60 -23 -67 -15 -12
-15 -14 2 -23 15 -9 17 -18 12 -52 -7 -47 6 -91 37 -124 28 -30 42 -29 100 8
27 17 52 28 56 24 4 -4 7 -53 7 -110 0 -118 11 -143 59 -131 32 8 61 52 82
126 9 30 19 58 23 62 9 9 31 -10 65 -57 24 -33 71 -88 171 -201 5 -7 46 -54
90 -105 44 -51 96 -110 115 -130 19 -21 40 -45 46 -55 6 -10 22 -22 35 -25 13
-4 18 -7 11 -8 -9 -1 -1 -17 20 -42 18 -22 38 -48 43 -57 6 -10 15 -20 22 -25
17 -11 75 -98 69 -104 -10 -11 -57 8 -51 20 4 7 -1 3 -10 -8 -15 -19 -17 -19
-26 -2 -6 9 -22 17 -36 17 -20 0 -23 3 -14 13 13 16 5 27 -21 27 -10 0 -18 -7
-18 -15 0 -19 -9 -19 -34 0 -21 16 -38 20 -34 8 5 -15 -14 -15 -100 1 -48 10
-94 18 -102 19 -8 2 -19 5 -25 9 -5 3 -30 9 -54 13 -24 4 -39 10 -33 14 5 3
-15 7 -45 7 -31 1 -59 7 -62 13 -5 7 -21 9 -43 6 -24 -4 -37 -2 -41 7 -3 9
-29 14 -83 16 -84 2 -159 15 -211 38 -43 18 -158 37 -188 31 -34 -6 -31 8 5
30 17 9 30 21 30 26 0 4 -19 -3 -42 -17 -24 -13 -54 -27 -68 -31 -23 -7 -24
-7 -10 10 14 17 13 18 -2 12 -9 -3 -21 0 -27 7 -7 9 12 40 74 116 46 58 84
111 85 118 0 17 -62 16 -133 -3 -87 -23 -155 -61 -224 -127 -59 -57 -64 -60
-98 -54 -26 5 -34 11 -27 19 59 75 82 112 82 133 0 13 -6 24 -13 24 -15 0
-199 -121 -193 -127 2 -2 38 20 79 49 42 28 80 48 84 44 4 -4 -18 -31 -48 -62
l-55 -55 -75 18 -76 18 33 44 c32 41 43 71 27 71 -3 0 -29 -24 -57 -54 -43
-45 -56 -53 -81 -50 -36 4 -128 25 -134 30 -3 3 12 22 33 43 21 22 35 44 32
50 -14 22 -45 10 -86 -35 -42 -45 -43 -46 -89 -38 -25 4 -49 7 -53 6 -19 -5
-5 15 22 31 30 18 40 37 20 37 -6 0 -34 -12 -63 -27 -51 -27 -91 -38 -82 -23
6 10 -40 23 -85 25 -50 3 -152 34 -145 45 8 12 -17 50 -32 50 -7 0 -13 -4 -13
-10 0 -5 6 -10 13 -10 8 0 7 -4 -3 -11 -11 -8 -12 -12 -2 -16 6 -2 12 -8 12
-13 0 -10 -69 -34 -76 -27 -10 10 -13 67 -3 72 5 4 9 0 9 -8 0 -8 9 -22 20
-32 24 -22 26 -13 4 20 -13 20 -14 33 -5 75 13 62 13 69 1 50 -15 -24 -25 17
-10 45 16 30 8 50 -21 58 -16 4 -19 3 -10 -6 16 -16 14 -30 -4 -23 -11 4 -15
-1 -15 -18 0 -12 3 -26 8 -30 4 -4 7 -21 7 -37 0 -21 -5 -29 -17 -29 -22 0
-34 -20 -18 -30 11 -7 11 -58 -1 -100 -3 -10 2 -14 14 -12 34 6 16 -14 -53
-56 -39 -24 -89 -66 -112 -93 -48 -56 -131 -113 -228 -158 -124 -57 -148 -51
-112 32 18 41 27 48 115 90 153 72 237 137 237 183 0 19 -5 24 -26 24 -20 0
-25 -4 -20 -17 5 -11 -9 -31 -46 -67 -56 -55 -174 -136 -196 -136 -31 0 93
129 166 173 61 36 24 29 -50 -9 -48 -26 -97 -63 -143 -110 -83 -85 -265 -207
-282 -190 -4 3 37 47 91 97 53 51 112 113 131 139 35 48 47 100 22 100 -8 0
-98 -59 -201 -131 -104 -72 -190 -128 -192 -126 -2 2 36 53 86 113 49 60 90
117 90 127 0 9 -2 17 -4 17 -2 0 -35 -31 -72 -68 -90 -89 -401 -288 -420 -269
-9 9 59 96 183 232 57 64 101 120 98 125 -16 26 -48 4 -122 -82 -43 -50 -89
-104 -103 -119 -24 -28 -233 -159 -252 -159 -17 0 -6 15 125 180 70 88 127
165 127 170 0 13 -56 13 -122 -1 -109 -23 -190 -76 -299 -195 -38 -41 -192
-142 -231 -151 -16 -3 12 29 85 102 108 107 167 183 167 217 0 10 -6 18 -14
18 -15 0 -138 -81 -300 -197 -83 -60 -118 -75 -84 -36 86 101 168 206 168 217
0 29 -15 23 -47 -19 -72 -92 -370 -283 -485 -311 -38 -9 -44 13 -20 69 18 41
27 48 115 90 153 72 237 137 237 183 0 19 -5 24 -26 24 -20 0 -25 -4 -20 -17
5 -11 -9 -31 -46 -67 -56 -55 -174 -136 -196 -136 -31 0 93 129 166 173 61 36
24 29 -49 -9 -137 -73 -223 -181 -217 -272 l3 -47 41 1 c51 1 156 49 277 128
49 32 91 56 93 54 2 -2 -32 -43 -76 -90 -44 -48 -80 -89 -80 -92 0 -20 50 2
117 52 113 86 384 272 394 272 21 0 4 -21 -85 -106 -51 -50 -107 -110 -125
-134 -30 -42 -41 -90 -21 -90 15 0 105 46 165 84 28 18 55 35 61 39 7 4 7 -9
0 -43 -7 -37 -7 -52 3 -64 12 -14 16 -14 45 1 17 9 54 33 83 55 29 21 57 38
63 38 6 0 -24 -40 -66 -89 -52 -61 -112 -117 -192 -177 -186 -139 -282 -250
-282 -327 0 -41 30 -34 99 24 68 57 252 254 340 365 48 61 69 78 146 120 50
26 107 58 127 71 21 13 39 23 42 23 2 0 -8 -22 -23 -50 -20 -38 -23 -52 -14
-61 10 -10 22 -8 55 7 38 17 198 110 271 158 15 10 27 15 27 12 0 -3 -36 -47
-81 -96 -75 -84 -79 -90 -53 -90 15 0 40 12 59 29 32 28 242 178 363 260 35
23 68 41 74 39 6 -2 -34 -48 -90 -102 -108 -105 -147 -154 -158 -200 -7 -28
-6 -29 22 -22 16 4 72 33 124 64 l95 57 0 -60 0 -60 42 1 c40 1 168 56 239
103 l30 21 -10 -49 c-11 -55 1 -81 35 -81 39 0 135 41 228 97 53 32 114 69
136 82 47 28 47 28 -63 -96 -66 -74 -78 -103 -39 -87 9 3 39 32 67 65 78 89
251 231 266 217 2 -2 -8 -37 -22 -76 -14 -40 -22 -77 -19 -82 9 -14 59 -12 73
2 20 20 13 -1 -13 -40 -28 -42 -33 -82 -10 -82 23 0 105 43 223 117 57 36 105
63 108 61 2 -3 -30 -43 -71 -89 -67 -73 -74 -84 -55 -87 12 -2 29 2 39 10 10
7 55 41 101 76 62 46 92 62 116 62 62 0 66 -7 28 -57 -33 -43 -45 -93 -24 -93
14 0 81 34 151 76 75 45 82 44 74 -9 -5 -31 -3 -46 7 -55 14 -11 23 -6 150 70
96 59 -80 -134 -216 -236 -142 -107 -226 -190 -260 -258 -35 -69 -35 -98 1
-98 21 0 57 32 177 154 83 84 183 194 221 243 60 76 80 95 140 126 68 36 72
37 130 27 33 -5 83 -16 110 -25 28 -9 77 -18 110 -20 77 -5 156 -18 174 -29
10 -6 12 -5 7 2 -9 14 4 15 24 2 12 -8 12 -10 1 -10 -29 0 0 -13 36 -16 21 -2
48 -6 60 -10 15 -4 22 -1 26 13 4 14 5 13 6 -6 1 -18 5 -22 21 -18 11 3 20 1
20 -3 0 -12 42 -9 59 4 12 9 13 8 9 -5 -5 -12 4 -18 43 -27 47 -11 79 -8 79 7
0 4 7 8 15 8 11 0 12 -4 3 -14 -6 -7 -9 -16 -6 -18 5 -5 104 -25 116 -24 4 1
9 0 12 -1 34 -13 172 -35 176 -28 3 5 11 3 17 -5 14 -17 140 -42 158 -31 7 4
10 3 5 -4 -10 -16 82 -28 106 -13 10 6 21 11 25 11 5 0 1 -5 -7 -10 -8 -5 -10
-10 -4 -10 22 0 62 40 67 67 2 16 14 78 27 138 27 137 26 131 35 185 4 25 15
77 25 115 11 39 22 93 26 120 3 28 20 113 36 190 16 77 31 149 34 160 7 36 13
70 18 95 3 14 8 35 12 48 5 16 2 22 -10 22 -9 0 -16 2 -16 4 0 10 30 60 31 51
1 -21 22 43 34 110 8 39 18 88 24 110 6 22 8 50 4 63 -3 13 -1 22 6 22 6 0 11
8 11 18 0 14 -2 15 -10 2 -8 -12 -10 -11 -10 6 0 11 9 29 20 39 11 10 20 30
20 44 0 14 9 60 20 101 23 89 25 129 6 136 -8 3 -16 14 -19 25 -7 27 -76 48
-179 53 -16 0 -28 5 -28 10 0 4 -11 6 -25 4 -14 -3 -25 -1 -25 4 0 5 -4 6 -10
3 -5 -3 -10 -1 -10 5 0 6 -5 8 -10 5 -6 -4 -8 -10 -5 -14 2 -5 -8 -8 -23 -8
-15 0 -21 2 -14 4 24 9 11 21 -35 32 -106 24 -230 45 -258 43 -16 -1 -35 -9
-42 -18 -10 -14 -12 -13 -10 12 2 29 1 29 -83 46 -47 10 -112 19 -145 21 -33
2 -73 9 -88 15 -16 7 -36 12 -46 12 -9 0 -75 11 -146 25 -72 14 -158 27 -192
30 -35 2 -67 6 -73 10 -5 3 -10 1 -10 -5 0 -7 -6 -10 -12 -7 -7 2 -12 9 -11
15 2 10 -70 27 -92 21 -6 -1 -17 1 -25 4 -48 19 -94 26 -101 15 -6 -9 -13 -7
-27 5 -24 22 -92 35 -92 18 0 -6 -4 -11 -10 -11 -5 0 -10 7 -10 15 0 19 -69
33 -80 15 -5 -9 -9 -9 -14 -1 -7 11 -46 16 -46 6z m480 -95 c0 -5 -5 -10 -11
-10 -5 0 -7 5 -4 10 3 6 8 10 11 10 2 0 4 -4 4 -10z m796 -177 c-10 -10 -19 5
-10 18 6 11 8 11 12 0 2 -7 1 -15 -2 -18z m544 -78 c0 -8 -4 -15 -10 -15 -5 0
-7 7 -4 15 4 8 8 15 10 15 2 0 4 -7 4 -15z m60 -65 c0 -5 -4 -10 -10 -10 -5 0
-10 5 -10 10 0 6 5 10 10 10 6 0 10 -4 10 -10z m-1247 -508 c15 -15 27 -37 27
-49 0 -22 -29 -96 -30 -75 0 17 -21 15 -71 -7 -24 -11 -45 -18 -47 -16 -2 1 4
29 14 61 34 119 57 138 107 86z m277 -12 c0 -5 -4 -10 -10 -10 -5 0 -10 5 -10
10 0 6 5 10 10 10 6 0 10 -4 10 -10z m-310 -154 c0 -3 -4 -8 -10 -11 -5 -3
-10 -1 -10 4 0 6 5 11 10 11 6 0 10 -2 10 -4z m-12 -45 c27 -17 -38 -111 -76
-111 -14 0 -32 55 -26 78 8 29 74 51 102 33z m102 -42 c0 -10 -7 -19 -15 -19
-15 0 -21 31 -9 43 11 10 24 -3 24 -24z m50 -70 c-7 -11 -14 -18 -17 -15 -8 8
5 36 17 36 7 0 7 -6 0 -21z m-1943 -175 c-3 -3 -12 -4 -19 -1 -8 3 -5 6 6 6
11 1 17 -2 13 -5z m3 -114 c0 -12 -42 -51 -48 -45 -3 2 1 11 7 19 7 8 10 20 6
26 -3 6 3 10 14 10 12 0 21 -4 21 -10z m-1280 -127 c0 -27 -139 -173 -226
-238 -97 -72 -133 -90 -140 -71 -17 44 98 191 203 260 63 42 163 72 163 49z
m2710 -2 c0 -13 -86 -115 -141 -168 l-44 -42 -57 16 c-32 9 -58 20 -58 24 0
10 85 84 140 122 67 46 160 74 160 48z m-1440 -31 c9 -5 19 -5 27 2 9 7 13 7
13 0 0 -14 -133 -118 -183 -144 -21 -10 -42 -16 -45 -13 -7 7 153 165 166 165
4 0 14 -4 22 -10z m193 -9 c4 -1 7 -9 7 -20 0 -22 -73 -92 -121 -117 -19 -9
-61 -35 -94 -58 -65 -44 -199 -106 -229 -106 -16 0 -18 5 -13 34 10 59 33 81
150 139 62 31 132 73 156 93 31 27 45 34 54 25 16 -16 48 -14 41 2 -3 9 2 13
18 11 13 -1 26 -3 31 -3z m67 -66 c-51 -43 -58 -44 -30 -5 12 17 25 28 30 25
5 -3 11 -1 15 5 3 5 11 10 17 10 5 0 -9 -16 -32 -35z m178 -8 c33 8 28 -19
-11 -61 -30 -31 -81 -56 -92 -44 -3 3 2 28 10 56 15 50 37 68 61 51 5 -5 20
-6 32 -2z m196 -47 c16 -5 4 -17 -65 -62 -115 -76 -186 -114 -195 -106 -7 8
22 50 94 136 l45 52 51 -6 c28 -4 60 -10 70 -14z m130 -29 c7 -11 -63 -66 -71
-57 -7 7 46 66 58 66 4 0 10 -4 13 -9z m241 -43 c3 -2 -31 -26 -75 -53 -44
-26 -84 -45 -88 -41 -4 4 16 29 44 56 41 39 56 48 82 45 18 -1 34 -4 37 -7z
m106 -7 c-8 -6 -3 -10 18 -14 40 -8 39 -20 -4 -47 -41 -25 -58 -19 -49 18 7
30 34 65 43 57 3 -4 0 -10 -8 -14z m239 -21 c11 -7 7 -10 -17 -10 -18 0 -33 5
-33 10 0 13 30 13 50 0z m-20 -25 c0 -7 -81 -47 -86 -43 -2 2 3 14 12 26 10
14 26 22 45 22 16 0 29 -2 29 -5z m807 -137 c-3 -8 -6 -5 -6 6 -1 11 2 17 5
13 3 -3 4 -12 1 -19z m53 12 c0 -5 -5 -10 -11 -10 -5 0 -7 5 -4 10 3 6 8 10
11 10 2 0 4 -4 4 -10z m130 -66 c0 -2 -7 -4 -15 -4 -8 0 -15 4 -15 10 0 5 7 7
15 4 8 -4 15 -8 15 -10z m-4052 -91 c-127 -152 -229 -263 -239 -263 -5 0 -9 8
-9 18 1 36 41 104 92 155 57 57 217 187 231 187 4 0 -29 -44 -75 -97z m2692
-23 c-128 -152 -209 -240 -222 -240 -12 0 -3 41 19 87 8 18 38 56 66 84 54 55
216 188 230 189 4 0 -37 -54 -93 -120z m1560 116 c0 -2 -8 -10 -17 -17 -16
-13 -17 -12 -4 4 13 16 21 21 21 13z"/>
<path d="M5360 2638 c0 -11 12 -10 30 2 12 7 10 9 -8 7 -12 0 -22 -5 -22 -9z"/>
<path d="M5320 2610 c0 -5 7 -7 15 -4 8 4 15 8 15 10 0 2 -7 4 -15 4 -8 0 -15
-4 -15 -10z"/>
<path d="M3290 2555 c0 -14 0 -28 -1 -32 0 -4 4 -9 9 -11 6 -2 10 13 10 33 0
19 -4 35 -9 35 -5 0 -9 -11 -9 -25z"/>
<path d="M3660 2460 c11 -20 30 -28 30 -12 0 11 -22 32 -32 32 -5 0 -4 -9 2
-20z"/>
<path d="M1040 2430 c-450 -73 -633 -108 -648 -124 -12 -12 -14 -22 -6 -43 8
-25 15 -28 58 -29 79 -2 81 -7 51 -180 -14 -82 -28 -158 -31 -169 -9 -30 -35
-56 -72 -72 -40 -17 -53 -43 -27 -57 10 -6 28 -20 41 -31 l24 -20 -25 -170
c-16 -102 -23 -187 -20 -213 10 -69 34 -139 50 -146 37 -14 66 85 100 349 14
105 30 202 36 217 13 31 37 42 143 64 96 19 158 43 153 58 -3 7 -41 10 -124 8
-157 -5 -152 -12 -124 161 26 158 46 224 73 238 24 13 408 89 448 89 16 0 50
-13 77 -30 64 -39 96 -46 117 -25 9 9 16 27 16 40 0 13 5 27 10 30 16 10 11
51 -8 68 -31 29 -70 27 -312 -13z"/>
<path d="M5638 2453 c7 -3 16 -2 19 1 4 3 -2 6 -13 5 -11 0 -14 -3 -6 -6z"/>
<path d="M6087 2439 c7 -7 15 -10 18 -7 3 3 -2 9 -12 12 -14 6 -15 5 -6 -5z"/>
<path d="M2828 2429 c-31 -17 -41 -51 -48 -149 -4 -53 -13 -105 -20 -117 -19
-30 -57 -49 -123 -63 -65 -13 -88 -37 -59 -63 13 -12 30 -15 74 -10 77 8 84
-6 64 -119 -22 -118 -69 -544 -67 -603 3 -104 37 -148 93 -119 42 21 74 72 98
152 23 81 21 102 -10 102 -11 0 -23 7 -26 15 -6 13 15 202 51 479 18 135 29
150 165 240 56 37 99 72 97 79 -6 16 -51 10 -108 -15 -26 -11 -58 -18 -71 -16
-22 3 -23 6 -24 98 0 53 -4 101 -8 108 -9 15 -54 15 -78 1z"/>
<path d="M5728 2433 c7 -3 16 -2 19 1 4 3 -2 6 -13 5 -11 0 -14 -3 -6 -6z"/>
<path d="M5778 2423 c7 -3 16 -2 19 1 4 3 -2 6 -13 5 -11 0 -14 -3 -6 -6z"/>
<path d="M3730 2360 c0 -5 7 -10 15 -10 8 0 15 5 15 10 0 6 -7 10 -15 10 -8 0
-15 -4 -15 -10z"/>
<path d="M6158 2353 c7 -3 16 -2 19 1 4 3 -2 6 -13 5 -11 0 -14 -3 -6 -6z"/>
<path d="M3230 2325 c-11 -28 -3 -62 16 -69 17 -7 19 25 2 42 -9 9 -8 12 4 12
24 0 30 27 7 33 -15 4 -23 -1 -29 -18z"/>
<path d="M3760 2330 c0 -5 7 -6 17 -3 11 4 14 3 9 -6 -5 -7 0 -18 10 -26 11
-8 15 -15 10 -15 -18 0 27 -40 46 -40 20 0 25 -16 6 -23 -8 -2 1 -12 19 -23
18 -11 32 -24 30 -30 -1 -6 20 -34 46 -64 34 -38 51 -50 59 -42 7 7 2 20 -21
44 -17 18 -31 36 -31 41 0 4 -8 7 -19 7 -12 0 -18 7 -17 17 0 10 -9 22 -22 28
-12 5 -20 15 -18 21 6 15 -91 124 -110 124 -8 0 -14 -4 -14 -10z"/>
<path d="M6451 2274 c0 -11 3 -14 6 -6 3 7 2 16 -1 19 -3 4 -6 -2 -5 -13z"/>
<path d="M3222 2208 c14 -11 14 -17 2 -45 -8 -18 -21 -33 -30 -33 -11 0 -14
-6 -9 -22 11 -35 11 -36 0 -36 -5 1 -13 -14 -16 -33 -4 -19 -10 -42 -14 -52
-6 -16 -4 -18 16 -15 21 3 24 0 21 -26 -5 -45 -20 -68 -41 -61 -15 4 -19 -2
-25 -32 -9 -56 -8 -101 3 -84 6 10 10 10 16 1 4 -7 -3 -22 -19 -36 -30 -28
-34 -54 -8 -55 9 0 -11 -9 -44 -20 -34 -10 -67 -25 -73 -33 -17 -20 2 -54 34
-62 21 -5 24 -11 20 -42 -2 -21 -7 -45 -10 -54 -5 -13 -2 -18 9 -18 9 0 16 8
16 19 0 11 4 22 9 25 5 3 7 14 4 25 -3 11 2 21 12 25 9 3 132 5 273 4 213 -3
262 0 287 12 36 18 45 54 17 69 -34 18 -183 31 -358 31 l-172 0 2 28 c1 15 7
37 14 49 7 12 14 35 17 50 3 15 12 68 22 116 14 72 14 90 4 97 -11 6 -10 9 2
16 8 5 18 26 22 47 6 32 5 36 -9 31 -11 -4 -16 -1 -16 11 0 9 9 19 20 22 12 3
20 14 20 27 0 11 3 31 6 44 5 18 2 22 -17 22 -20 0 -21 -2 -7 -12z m-17 -168
c3 -5 -1 -10 -9 -10 -9 0 -16 5 -16 10 0 6 4 10 9 10 6 0 13 -4 16 -10z"/>
<path d="M6100 2096 c0 -8 5 -18 10 -21 6 -3 10 1 10 9 0 8 -4 18 -10 21 -5 3
-10 -1 -10 -9z"/>
<path d="M4042 2021 c7 -12 19 -21 26 -21 17 0 7 17 -19 31 -18 9 -19 9 -7
-10z"/>
<path d="M4075 1980 c-6 -10 27 -59 78 -114 63 -66 79 -94 68 -113 -5 -11 -13
-47 -17 -80 -6 -58 -9 -64 -46 -88 -56 -37 -129 -75 -144 -75 -7 0 -19 -9 -27
-20 -9 -13 -20 -18 -31 -14 -13 5 -7 16 31 58 27 29 65 85 86 125 58 113 47
178 -32 202 -29 9 -47 9 -74 0 -45 -15 -112 -87 -143 -155 -27 -59 -59 -184
-68 -266 l-7 -55 -62 -32 c-34 -17 -83 -40 -109 -52 -27 -11 -48 -25 -48 -30
0 -18 15 -13 115 40 53 28 98 49 101 47 2 -3 8 -28 14 -57 11 -60 40 -106 73
-117 92 -30 225 29 230 102 l2 29 -73 -3 c-46 -2 -79 1 -88 9 -19 15 -18 78 2
117 16 32 31 45 21 17 -8 -19 20 -8 127 49 45 23 94 46 109 50 l29 7 -7 -108
c-9 -135 0 -163 49 -163 44 0 86 46 144 157 47 91 51 96 72 82 8 -5 11 -9 7
-9 -4 0 2 -10 14 -22 21 -22 21 -29 15 -180 -3 -86 -3 -163 0 -172 8 -21 20
-20 28 0 14 35 37 240 31 271 -4 21 -2 33 5 33 6 0 9 4 5 9 -3 5 -1 12 4 16 5
3 9 13 9 23 -1 9 4 63 11 118 16 125 8 149 -44 141 -50 -8 -92 -44 -121 -103
-26 -54 -76 -109 -87 -97 -4 3 -7 19 -7 35 0 23 4 28 23 28 13 0 32 9 42 20
18 20 18 21 -13 32 -18 7 -32 19 -32 28 0 8 -9 30 -20 48 -15 24 -27 32 -49
32 -20 0 -30 6 -34 20 -3 11 -11 19 -18 18 -7 -2 -13 2 -14 7 0 12 -85 131
-85 120 0 -4 -9 0 -20 10 -11 10 -17 22 -14 26 3 5 3 9 0 9 -3 0 -8 -4 -11
-10z m-41 -233 c16 -25 -50 -137 -81 -137 -17 0 -17 27 2 81 26 73 55 94 79
56z m476 -129 c0 -44 -10 -78 -22 -78 -6 0 -8 6 -5 14 3 8 -1 20 -8 26 -13 11
-12 16 2 41 23 38 33 37 33 -3z"/>
<path d="M3141 1944 c0 -11 3 -14 6 -6 3 7 2 16 -1 19 -3 4 -6 -2 -5 -13z"/>
<path d="M1600 1936 c-14 -8 -53 -52 -87 -98 -34 -46 -71 -89 -82 -95 -19 -12
-21 -10 -30 25 -15 55 -38 82 -70 82 -56 0 -93 -79 -106 -230 -4 -41 -15 -144
-26 -228 -17 -138 -18 -156 -4 -182 9 -17 22 -30 31 -30 29 0 70 55 98 130 87
230 160 375 233 459 l31 36 31 -30 c28 -26 33 -27 46 -14 8 8 21 41 27 73 11
48 10 61 -3 84 -17 31 -52 38 -89 18z"/>
<path d="M3135 1911 c-3 -6 4 -9 15 -8 11 1 20 5 20 9 0 11 -28 10 -35 -1z"/>
<path d="M1928 1793 c-1 -5 -2 -66 -2 -138 -2 -123 -4 -135 -37 -225 -29 -77
-41 -98 -66 -113 l-32 -18 -15 30 c-37 71 2 229 92 373 15 25 15 28 -2 47 -99
109 -253 -235 -194 -432 17 -58 61 -97 107 -97 101 0 196 150 216 341 8 71 -8
181 -31 217 -14 22 -32 29 -36 15z"/>
<path d="M2137 1768 c-22 -17 -35 -111 -44 -300 -7 -162 -3 -178 48 -178 43 0
89 55 158 188 62 119 104 182 115 171 4 -3 2 -37 -4 -75 -17 -113 -25 -430
-12 -438 20 -12 30 30 58 249 33 250 36 353 13 368 -42 27 -108 -22 -168 -122
-66 -112 -77 -109 -73 20 2 51 -2 97 -8 109 -12 23 -57 27 -83 8z"/>
<path d="M5890 1572 c1 -12 40 -55 46 -49 3 2 -6 16 -20 30 -14 15 -26 23 -26
19z"/>
<path d="M5797 1504 c-14 -14 -7 -24 17 -24 14 0 28 5 31 10 3 6 2 10 -4 10
-5 0 -16 2 -23 5 -8 3 -17 2 -21 -1z"/>
<path d="M4598 1469 c-22 -12 -24 -39 -4 -39 19 0 48 29 41 41 -8 11 -15 11
-37 -2z"/>
<path d="M3080 1466 c0 -2 8 -10 18 -17 15 -13 16 -12 3 4 -13 16 -21 21 -21
13z"/>
<path d="M3037 1424 c-11 -11 3 -24 18 -18 8 4 12 10 9 15 -6 11 -18 12 -27 3z"/>
<path d="M3080 1420 c0 -5 5 -10 10 -10 6 0 10 5 10 10 0 6 -4 10 -10 10 -5 0
-10 -4 -10 -10z"/>
<path d="M3080 1390 c0 -5 5 -10 11 -10 5 0 7 5 4 10 -3 6 -8 10 -11 10 -2 0
-4 -4 -4 -10z"/>
<path d="M3015 1340 c-3 -5 -1 -10 4 -10 6 0 11 5 11 10 0 6 -2 10 -4 10 -3 0
-8 -4 -11 -10z"/>
<path d="M2114 1155 c-29 -29 -27 -49 3 -53 28 -4 68 45 52 64 -16 20 -26 17
-55 -11z"/>
<path d="M3754 1157 c-30 -26 -28 -57 4 -57 24 0 55 34 50 56 -5 27 -23 27
-54 1z"/>
<path d="M3165 1092 c-7 -20 -4 -22 23 -15 27 7 28 19 3 26 -12 3 -22 -1 -26
-11z"/>
<path d="M4660 851 c0 -5 5 -13 10 -16 6 -3 10 -2 10 4 0 5 -4 13 -10 16 -5 3
-10 2 -10 -4z"/>
<path d="M4625 820 c-3 -5 -2 -10 4 -10 5 0 13 5 16 10 3 6 2 10 -4 10 -5 0
-13 -4 -16 -10z"/>
<path d="M4918 773 c7 -3 16 -2 19 1 4 3 -2 6 -13 5 -11 0 -14 -3 -6 -6z"/>
<path d="M5510 566 c0 -9 5 -16 10 -16 6 0 10 4 10 9 0 6 -4 13 -10 16 -5 3
-10 -1 -10 -9z"/>
</g>
</svg>
